<svg xmlns="http://www.w3.org/2000/svg" viewBox="0 0 100 100" width="100" height="100">
  <path d="M50,92 C45,87 18,72 18,47 C18,27 34,17 50,12 C66,17 82,27 82,47 C82,72 55,87 50,92 Z" fill="#8BB845" stroke="#5C7F25" stroke-width="2"/>
  <path d="M50,92 Q50,50 50,12" stroke="#5C7F25" stroke-width="2" fill="none"/>
  <path d="M50,77 Q39,67 26,60 M50,62 Q37,52 22,45 M50,47 Q39,37 27,30 M50,32 Q41,24 32,18" stroke="#719C32" stroke-width="1.5" fill="none"/>
  <path d="M50,77 Q61,67 74,60 M50,62 Q63,52 78,45 M50,47 Q61,37 73,30 M50,32 Q59,24 68,18" stroke="#719C32" stroke-width="1.5" fill="none"/>
</svg>
